{"title":"Dune  (Sci-Fi 1984 V3 Redux)  Francesca Annis, Leonardo Cimino &amp;","uid":9536114,"size":996062648,"categoryP":"video","categoryS":"movies","magnet":"?xt=urn:btih:0a5311b64052cc2c7b0cdaf94ff7737cefcbf112&amp;dn=Dune++%28Sci-Fi+1984+V3+Redux%29++Francesca+Annis%2C+Leonardo+Cimino+%26&amp;tr=udp%3A%2F%2Ftracker.openbittorrent.com%3A80&amp;tr=udp%3A%2F%2Fopen.demonii.com%3A1337&amp;tr=udp%3A%2F%2Ftracker.coppersurfer.tk%3A6969&amp;tr=udp%3A%2F%2Fexodus.desync.com%3A6969","seeders":1,"leechers":0,"uploader":"BurtonW","files":1,"time":1390937374,"description":" &lt;a href=&quot;http://www.imdb.com/title/tt0087182/?ref_=nv_sr_1&quot; rel=&quot;nofollow&quot; target=&quot;_NEW&quot;&gt;http://www.imdb.com/title/tt0087182/?ref_=nv_sr_1&lt;/a&gt;\n\n\nA good quality film.\n\n\nEnglish subtitles!\n\n\nRuntime: 2h 58mn\n\n\nStoryline:\n\n   In the far future, a duke and his family are sent by the Emperor to a sand world from which comes a spice that is essential for interstellar travel. The move is designed to destroy the duke and his family, but his son escapes and seeks revenge as he uses the world's ecology as one of his weapons.\n\n\nTechnical info:\n\n\nGeneral:\n\nComplete name:                  : Dune (Sci-Fi 1984 V3 Redux) Francesca Annis, Leonardo Cimino &amp; Brad Dourif.mp4\n\nFormat                         : MPEG-4\nFormat profile                 : Base Media / Version 2\nCodec ID                       : mp42\nFile size                      : 950 MiB\nDuration                       : 2h 58mn\nOverall bit rate mode          : Variable\nOverall bit rate               : 744 Kbps\nEncoded date                   : UTC 2014-01-28 08:52:22\nTagged date                    : UTC 2014-01-28 15:22:15\n\n\nVideo:\n\nID                             : 1\nFormat                         : AVC\nFormat/Info                    : Advanced Video Codec\nFormat profile                 : &lt;a class=&quot;__cf_email__&quot; href=&quot;/cdn-cgi/l/email-protection&quot; data-cfemail=&quot;3c715d55527c7008120c&quot;&gt;[email&amp;#160;protected]&lt;/a&gt;&lt;script cf-hash='f9e31' type=&quot;text/javascript&quot;&gt;\n/* &lt;![CDATA[ */!function(){try{var t=&quot;currentScript&quot;in document?document.currentScript:function(){for(var t=document.getElementsByTagName(&quot;script&quot;),e=t.length;e--;)if(t[e].getAttribute(&quot;cf-hash&quot;))return t[e]}();if(t&amp;&amp;t.previousSibling){var e,r,n,i,c=t.previousSibling,a=c.getAttribute(&quot;data-cfemail&quot;);if(a){for(e=&quot;&quot;,r=parseInt(a.substr(0,2),16),n=2;a.length-n;n+=2)i=parseInt(a.substr(n,2),16)^r,e+=String.fromCharCode(i);e=document.createTextNode(e),c.parentNode.replaceChild(e,c)}}}catch(u){}}();/* ]]&gt; */&lt;/script&gt;\nFormat settings, CABAC         : Yes\nFormat settings, ReFrames      : 16 frames\nCodec ID                       : avc1\nCodec ID/Info                  : Advanced Video Coding\nDuration                       : 2h 58mn\nBit rate mode                  : Variable\nBit rate                       : 576 Kbps\nWidth                          : 720 pixels\nHeight                         : 304 pixels\nDisplay aspect ratio           : 2.35:1\nFrame rate mode                : Variable\nFrame rate                     : 23.976 fps\nMinimum frame rate             : 4.610 fps\nMaximum frame rate             : 45 000.000 fps\nColor space                    : YUV\nChroma subsampling             : 4:2:0\nBit depth                      : 8 bits\nScan type                      : Progressive\nBits/(Pixel*Frame)             : 0.110\nStream size                    : 736 MiB (77%)\nWriting library                : x264 core 130 r2273 b3065e6\nEncoding settings              : Deleted\nEncoded date                   : UTC 2014-01-28 08:52:22\nTagged date                    : UTC 2014-01-28 15:22:15\nColor primaries                : BT.601 NTSC\nTransfer characteristics       : BT.709\nMatrix coefficients            : BT.601\n\nAudio:\n\nID                             : 2\nFormat                         : AAC\nFormat/Info                    : Advanced Audio Codec\nFormat profile                 : LC\nCodec ID                       : 40\nDuration                       : 2h 58mn\nBit rate mode                  : Variable\nBit rate                       : 160 Kbps\nMaximum bit rate               : 315 Kbps\nChannel(s)                     : 2 channels\nChannel positions              : Front: L R\nSampling rate                  : 48.0 KHz\nCompression mode               : Lossy\nDelay relative to video        : 83ms\nStream size                    : 204 MiB (22%)\nLanguage                       : English\nEncoded date                   : UTC 2014-01-28 08:52:22\nTagged date                    : UTC 2014-01-28 15:22:14\n\nText:\n\nID                             : 3\nFormat                         : mp4s\nCodec ID                       : E0\nDuration                       : 2h 54mn\nBit rate mode                  : Variable\nBit rate                       : 1 796 bps\nMaximum bit rate               : 4 284 Mbps\nDelay relative to video        : 83ms\nStream size                    : 2.24 MiB (0%)\nLanguage                       : English\nEncoded date                   : UTC 2014-01-28 08:52:22\nTagged date                    : UTC 2014-01-28 15:17:37\n\n","torrent":{"xt":"urn:btih:0a5311b64052cc2c7b0cdaf94ff7737cefcbf112","amp;dn":"Dune++%28Sci-Fi+1984+V3+Redux%29++Francesca+Annis%2C+Leonardo+Cimino+%26","amp;tr":["udp%3A%2F%2Ftracker.openbittorrent.com%3A80","udp%3A%2F%2Fopen.demonii.com%3A1337","udp%3A%2F%2Ftracker.coppersurfer.tk%3A6969","udp%3A%2F%2Fexodus.desync.com%3A6969"],"infoHash":"0a5311b64052cc2c7b0cdaf94ff7737cefcbf112","infoHashBuffer":{"type":"Buffer","data":[10,83,17,182,64,82,204,44,123,12,218,249,79,247,115,124,239,203,241,18]},"announce":[],"urlList":[]}}